<mxfile host="Electron" modified="2023-08-08T21:16:38.960Z" agent="Mozilla/5.0 (Windows NT 10.0; Win64; x64) AppleWebKit/537.36 (KHTML, like Gecko) draw.io/21.2.8 Chrome/112.0.5615.165 Electron/24.2.0 Safari/537.36" etag="MJXPSRV5rgpvy7wp_wjP" version="21.2.8" type="device" pages="2">
  <diagram name="Wireframe - home page" id="5v4vM-18oPx_iX2RYHD-">
    <mxGraphModel dx="1909" dy="1129" grid="1" gridSize="10" guides="1" tooltips="1" connect="1" arrows="1" fold="1" page="1" pageScale="1" pageWidth="1400" pageHeight="850" math="0" shadow="0">
      <root>
        <mxCell id="0" />
        <mxCell id="1" parent="0" />
        <mxCell id="Pq7hAAymnxmfb0ZzFhIc-2" value="" style="rounded=0;whiteSpace=wrap;html=1;" vertex="1" parent="1">
          <mxGeometry x="40" y="30" width="1320" height="790" as="geometry" />
        </mxCell>
        <mxCell id="Pq7hAAymnxmfb0ZzFhIc-3" value="&lt;font style=&quot;font-size: 24px;&quot;&gt;Header&lt;/font&gt;" style="rounded=0;whiteSpace=wrap;html=1;" vertex="1" parent="1">
          <mxGeometry x="50" y="40" width="1300" height="130" as="geometry" />
        </mxCell>
        <mxCell id="Pq7hAAymnxmfb0ZzFhIc-4" value="&lt;font style=&quot;font-size: 20px;&quot;&gt;Logo&lt;/font&gt;" style="whiteSpace=wrap;html=1;aspect=fixed;" vertex="1" parent="1">
          <mxGeometry x="70" y="65" width="80" height="80" as="geometry" />
        </mxCell>
        <mxCell id="Pq7hAAymnxmfb0ZzFhIc-5" value="&lt;font style=&quot;font-size: 20px;&quot;&gt;Cart&lt;/font&gt;" style="whiteSpace=wrap;html=1;aspect=fixed;" vertex="1" parent="1">
          <mxGeometry x="1250" y="65" width="80" height="80" as="geometry" />
        </mxCell>
        <mxCell id="Pq7hAAymnxmfb0ZzFhIc-6" value="&lt;font style=&quot;font-size: 20px;&quot;&gt;Sign Up&lt;/font&gt;" style="whiteSpace=wrap;html=1;aspect=fixed;" vertex="1" parent="1">
          <mxGeometry x="1150" y="65" width="80" height="80" as="geometry" />
        </mxCell>
        <mxCell id="Pq7hAAymnxmfb0ZzFhIc-7" value="&lt;font style=&quot;font-size: 24px;&quot;&gt;Navigation&lt;/font&gt;" style="rounded=0;whiteSpace=wrap;html=1;" vertex="1" parent="1">
          <mxGeometry x="50" y="190" width="1300" height="120" as="geometry" />
        </mxCell>
        <mxCell id="Pq7hAAymnxmfb0ZzFhIc-8" value="&lt;font style=&quot;font-size: 24px;&quot;&gt;Main&lt;/font&gt;" style="rounded=0;whiteSpace=wrap;html=1;" vertex="1" parent="1">
          <mxGeometry x="50" y="330" width="1300" height="330" as="geometry" />
        </mxCell>
        <mxCell id="Pq7hAAymnxmfb0ZzFhIc-9" value="&lt;font style=&quot;font-size: 24px;&quot;&gt;Footer&lt;/font&gt;" style="rounded=0;whiteSpace=wrap;html=1;" vertex="1" parent="1">
          <mxGeometry x="50" y="680" width="1300" height="130" as="geometry" />
        </mxCell>
      </root>
    </mxGraphModel>
  </diagram>
  <diagram id="h3bKTT4vN6JEBoAWWPd7" name="Site Map">
    <mxGraphModel dx="350" dy="1035" grid="1" gridSize="10" guides="1" tooltips="1" connect="1" arrows="1" fold="1" page="1" pageScale="1" pageWidth="1400" pageHeight="850" math="0" shadow="0">
      <root>
        <mxCell id="0" />
        <mxCell id="1" parent="0" />
        <mxCell id="gtN64KW7r_4PtaNvM5jZ-84" style="edgeStyle=orthogonalEdgeStyle;rounded=0;orthogonalLoop=1;jettySize=auto;html=1;entryX=0.5;entryY=0;entryDx=0;entryDy=0;startArrow=classic;startFill=1;" edge="1" parent="1" source="gtN64KW7r_4PtaNvM5jZ-45" target="gtN64KW7r_4PtaNvM5jZ-57">
          <mxGeometry relative="1" as="geometry" />
        </mxCell>
        <mxCell id="gtN64KW7r_4PtaNvM5jZ-87" style="edgeStyle=orthogonalEdgeStyle;rounded=0;orthogonalLoop=1;jettySize=auto;html=1;entryX=0.5;entryY=0;entryDx=0;entryDy=0;" edge="1" parent="1" source="gtN64KW7r_4PtaNvM5jZ-45" target="gtN64KW7r_4PtaNvM5jZ-72">
          <mxGeometry relative="1" as="geometry" />
        </mxCell>
        <mxCell id="gtN64KW7r_4PtaNvM5jZ-45" value="Sign Up Page" style="rounded=0;whiteSpace=wrap;html=1;" vertex="1" parent="1">
          <mxGeometry x="1910" y="100" width="120" height="150" as="geometry" />
        </mxCell>
        <mxCell id="gtN64KW7r_4PtaNvM5jZ-48" value="Contact Us" style="rounded=0;whiteSpace=wrap;html=1;" vertex="1" parent="1">
          <mxGeometry x="2390" y="340" width="120" height="150" as="geometry" />
        </mxCell>
        <mxCell id="gtN64KW7r_4PtaNvM5jZ-82" style="edgeStyle=orthogonalEdgeStyle;rounded=0;orthogonalLoop=1;jettySize=auto;html=1;entryX=0.5;entryY=0;entryDx=0;entryDy=0;startArrow=classic;startFill=1;" edge="1" parent="1" source="gtN64KW7r_4PtaNvM5jZ-51" target="gtN64KW7r_4PtaNvM5jZ-48">
          <mxGeometry relative="1" as="geometry" />
        </mxCell>
        <mxCell id="gtN64KW7r_4PtaNvM5jZ-88" style="rounded=0;orthogonalLoop=1;jettySize=auto;html=1;exitX=0;exitY=1;exitDx=0;exitDy=0;entryX=1;entryY=0;entryDx=0;entryDy=0;startArrow=classic;startFill=1;" edge="1" parent="1" source="gtN64KW7r_4PtaNvM5jZ-51" target="gtN64KW7r_4PtaNvM5jZ-72">
          <mxGeometry relative="1" as="geometry" />
        </mxCell>
        <mxCell id="gtN64KW7r_4PtaNvM5jZ-51" value="Knitting Page" style="rounded=0;whiteSpace=wrap;html=1;" vertex="1" parent="1">
          <mxGeometry x="2150" y="100" width="120" height="150" as="geometry" />
        </mxCell>
        <mxCell id="gtN64KW7r_4PtaNvM5jZ-80" style="edgeStyle=orthogonalEdgeStyle;rounded=0;orthogonalLoop=1;jettySize=auto;html=1;entryX=0;entryY=0.5;entryDx=0;entryDy=0;" edge="1" parent="1" source="gtN64KW7r_4PtaNvM5jZ-55" target="gtN64KW7r_4PtaNvM5jZ-60">
          <mxGeometry relative="1" as="geometry" />
        </mxCell>
        <mxCell id="gtN64KW7r_4PtaNvM5jZ-85" style="edgeStyle=orthogonalEdgeStyle;rounded=0;orthogonalLoop=1;jettySize=auto;html=1;entryX=0.75;entryY=1;entryDx=0;entryDy=0;" edge="1" parent="1" source="gtN64KW7r_4PtaNvM5jZ-55" target="gtN64KW7r_4PtaNvM5jZ-57">
          <mxGeometry relative="1" as="geometry" />
        </mxCell>
        <mxCell id="gtN64KW7r_4PtaNvM5jZ-89" style="rounded=0;orthogonalLoop=1;jettySize=auto;html=1;exitX=1;exitY=0;exitDx=0;exitDy=0;entryX=0;entryY=1;entryDx=0;entryDy=0;startArrow=classic;startFill=1;" edge="1" parent="1" source="gtN64KW7r_4PtaNvM5jZ-55" target="gtN64KW7r_4PtaNvM5jZ-64">
          <mxGeometry relative="1" as="geometry" />
        </mxCell>
        <mxCell id="gtN64KW7r_4PtaNvM5jZ-92" style="edgeStyle=orthogonalEdgeStyle;rounded=0;orthogonalLoop=1;jettySize=auto;html=1;entryX=0.25;entryY=0;entryDx=0;entryDy=0;startArrow=classic;startFill=1;exitX=0.25;exitY=1;exitDx=0;exitDy=0;" edge="1" parent="1" source="gtN64KW7r_4PtaNvM5jZ-55" target="gtN64KW7r_4PtaNvM5jZ-51">
          <mxGeometry relative="1" as="geometry">
            <Array as="points">
              <mxPoint x="1940" y="770" />
              <mxPoint x="1660" y="770" />
              <mxPoint x="1660" y="80" />
              <mxPoint x="2180" y="80" />
            </Array>
          </mxGeometry>
        </mxCell>
        <mxCell id="gtN64KW7r_4PtaNvM5jZ-94" style="edgeStyle=orthogonalEdgeStyle;rounded=0;orthogonalLoop=1;jettySize=auto;html=1;exitX=0.75;exitY=1;exitDx=0;exitDy=0;entryX=0.75;entryY=1;entryDx=0;entryDy=0;startArrow=classic;startFill=1;" edge="1" parent="1" source="gtN64KW7r_4PtaNvM5jZ-55" target="gtN64KW7r_4PtaNvM5jZ-48">
          <mxGeometry relative="1" as="geometry">
            <Array as="points">
              <mxPoint x="2000" y="810" />
              <mxPoint x="2480" y="810" />
            </Array>
          </mxGeometry>
        </mxCell>
        <mxCell id="gtN64KW7r_4PtaNvM5jZ-55" value="About Us" style="rounded=0;whiteSpace=wrap;html=1;" vertex="1" parent="1">
          <mxGeometry x="1910" y="590" width="120" height="150" as="geometry" />
        </mxCell>
        <mxCell id="gtN64KW7r_4PtaNvM5jZ-57" value="Sign In Page" style="rounded=0;whiteSpace=wrap;html=1;" vertex="1" parent="1">
          <mxGeometry x="1690" y="340" width="120" height="150" as="geometry" />
        </mxCell>
        <mxCell id="gtN64KW7r_4PtaNvM5jZ-81" style="edgeStyle=orthogonalEdgeStyle;rounded=0;orthogonalLoop=1;jettySize=auto;html=1;entryX=0.25;entryY=1;entryDx=0;entryDy=0;startArrow=classic;startFill=1;" edge="1" parent="1" source="gtN64KW7r_4PtaNvM5jZ-60" target="gtN64KW7r_4PtaNvM5jZ-48">
          <mxGeometry relative="1" as="geometry" />
        </mxCell>
        <mxCell id="gtN64KW7r_4PtaNvM5jZ-91" style="edgeStyle=orthogonalEdgeStyle;rounded=0;orthogonalLoop=1;jettySize=auto;html=1;entryX=0.75;entryY=0;entryDx=0;entryDy=0;startArrow=classic;startFill=1;exitX=0.75;exitY=1;exitDx=0;exitDy=0;" edge="1" parent="1" source="gtN64KW7r_4PtaNvM5jZ-60" target="gtN64KW7r_4PtaNvM5jZ-51">
          <mxGeometry relative="1" as="geometry">
            <Array as="points">
              <mxPoint x="2240" y="770" />
              <mxPoint x="2540" y="770" />
              <mxPoint x="2540" y="80" />
              <mxPoint x="2240" y="80" />
            </Array>
          </mxGeometry>
        </mxCell>
        <mxCell id="gtN64KW7r_4PtaNvM5jZ-93" style="edgeStyle=orthogonalEdgeStyle;rounded=0;orthogonalLoop=1;jettySize=auto;html=1;exitX=0.25;exitY=1;exitDx=0;exitDy=0;entryX=0.25;entryY=1;entryDx=0;entryDy=0;" edge="1" parent="1" source="gtN64KW7r_4PtaNvM5jZ-60" target="gtN64KW7r_4PtaNvM5jZ-57">
          <mxGeometry relative="1" as="geometry">
            <Array as="points">
              <mxPoint x="2180" y="790" />
              <mxPoint x="1720" y="790" />
            </Array>
          </mxGeometry>
        </mxCell>
        <mxCell id="gtN64KW7r_4PtaNvM5jZ-60" value="Cart Page" style="rounded=0;whiteSpace=wrap;html=1;" vertex="1" parent="1">
          <mxGeometry x="2150" y="590" width="120" height="150" as="geometry" />
        </mxCell>
        <mxCell id="gtN64KW7r_4PtaNvM5jZ-74" style="edgeStyle=orthogonalEdgeStyle;rounded=0;orthogonalLoop=1;jettySize=auto;html=1;entryX=0;entryY=0.5;entryDx=0;entryDy=0;startArrow=classic;startFill=1;" edge="1" parent="1" source="gtN64KW7r_4PtaNvM5jZ-64" target="gtN64KW7r_4PtaNvM5jZ-48">
          <mxGeometry relative="1" as="geometry" />
        </mxCell>
        <mxCell id="gtN64KW7r_4PtaNvM5jZ-75" style="edgeStyle=orthogonalEdgeStyle;rounded=0;orthogonalLoop=1;jettySize=auto;html=1;entryX=0.5;entryY=0;entryDx=0;entryDy=0;startArrow=classic;startFill=1;" edge="1" parent="1" source="gtN64KW7r_4PtaNvM5jZ-64" target="gtN64KW7r_4PtaNvM5jZ-60">
          <mxGeometry relative="1" as="geometry" />
        </mxCell>
        <mxCell id="gtN64KW7r_4PtaNvM5jZ-77" style="edgeStyle=orthogonalEdgeStyle;rounded=0;orthogonalLoop=1;jettySize=auto;html=1;entryX=0.5;entryY=1;entryDx=0;entryDy=0;startArrow=classic;startFill=1;" edge="1" parent="1" source="gtN64KW7r_4PtaNvM5jZ-64" target="gtN64KW7r_4PtaNvM5jZ-51">
          <mxGeometry relative="1" as="geometry" />
        </mxCell>
        <mxCell id="gtN64KW7r_4PtaNvM5jZ-64" value="Crochet Page" style="rounded=0;whiteSpace=wrap;html=1;" vertex="1" parent="1">
          <mxGeometry x="2150" y="340" width="120" height="150" as="geometry" />
        </mxCell>
        <mxCell id="gtN64KW7r_4PtaNvM5jZ-73" style="edgeStyle=orthogonalEdgeStyle;rounded=0;orthogonalLoop=1;jettySize=auto;html=1;entryX=0;entryY=0.5;entryDx=0;entryDy=0;startArrow=classic;startFill=1;" edge="1" parent="1" source="gtN64KW7r_4PtaNvM5jZ-72" target="gtN64KW7r_4PtaNvM5jZ-64">
          <mxGeometry relative="1" as="geometry" />
        </mxCell>
        <mxCell id="gtN64KW7r_4PtaNvM5jZ-76" style="edgeStyle=orthogonalEdgeStyle;rounded=0;orthogonalLoop=1;jettySize=auto;html=1;entryX=0.5;entryY=0;entryDx=0;entryDy=0;startArrow=classic;startFill=1;" edge="1" parent="1" source="gtN64KW7r_4PtaNvM5jZ-72" target="gtN64KW7r_4PtaNvM5jZ-55">
          <mxGeometry relative="1" as="geometry" />
        </mxCell>
        <mxCell id="gtN64KW7r_4PtaNvM5jZ-79" style="edgeStyle=orthogonalEdgeStyle;rounded=0;orthogonalLoop=1;jettySize=auto;html=1;entryX=1;entryY=0.5;entryDx=0;entryDy=0;startArrow=classic;startFill=1;" edge="1" parent="1" source="gtN64KW7r_4PtaNvM5jZ-72" target="gtN64KW7r_4PtaNvM5jZ-57">
          <mxGeometry relative="1" as="geometry" />
        </mxCell>
        <mxCell id="gtN64KW7r_4PtaNvM5jZ-90" style="rounded=0;orthogonalLoop=1;jettySize=auto;html=1;exitX=1;exitY=1;exitDx=0;exitDy=0;entryX=0;entryY=0;entryDx=0;entryDy=0;startArrow=classic;startFill=1;" edge="1" parent="1" source="gtN64KW7r_4PtaNvM5jZ-72" target="gtN64KW7r_4PtaNvM5jZ-60">
          <mxGeometry relative="1" as="geometry" />
        </mxCell>
        <mxCell id="gtN64KW7r_4PtaNvM5jZ-72" value="Home Page" style="rounded=0;whiteSpace=wrap;html=1;" vertex="1" parent="1">
          <mxGeometry x="1910" y="340" width="120" height="150" as="geometry" />
        </mxCell>
      </root>
    </mxGraphModel>
  </diagram>
</mxfile>
